<?xml version="1.0" standalone="no"?>
<!DOCTYPE svg PUBLIC "-//W3C//DTD SVG 20010904//EN"
 "http://www.w3.org/TR/2001/REC-SVG-20010904/DTD/svg10.dtd">
<svg version="1.0" xmlns="http://www.w3.org/2000/svg"
 width="594.000000pt" height="594.000000pt" viewBox="0 0 594.000000 594.000000"
 preserveAspectRatio="xMidYMid meet">
<metadata>
Created by potrace 1.14, written by Peter Selinger 2001-2017
</metadata>
<g transform="translate(0.000000,594.000000) scale(0.100000,-0.100000)"
fill="#000000" stroke="none">
<path d="M10 5534 c0 -4 43 -82 88 -159 19 -33 46 -80 60 -105 14 -25 80 -139
147 -255 67 -115 251 -435 410 -710 159 -275 369 -639 468 -810 98 -170 189
-328 201 -350 13 -22 63 -110 113 -195 49 -85 169 -294 267 -465 98 -170 187
-322 197 -337 10 -15 19 -30 19 -32 0 -3 18 -35 40 -71 22 -36 40 -67 40 -69
0 -2 44 -79 98 -172 54 -93 110 -189 124 -214 14 -25 107 -187 208 -360 100
-173 192 -333 205 -355 88 -155 259 -452 266 -458 6 -8 37 39 105 160 13 23
53 92 89 153 36 61 65 115 65 120 0 4 3 10 8 12 4 2 14 15 22 31 8 15 53 93
100 174 47 81 97 167 111 192 14 25 58 100 96 166 38 66 81 140 95 165 14 25
57 100 97 167 39 67 74 129 77 137 4 10 -15 51 -45 101 -28 47 -51 89 -51 94
0 5 -3 11 -7 13 -5 2 -16 19 -27 38 -58 109 -80 147 -92 161 -8 8 -14 18 -14
22 0 3 -39 72 -86 154 -47 81 -96 166 -109 188 -97 171 -150 261 -156 265 -3
3 -9 15 -13 28 -5 13 -16 22 -29 23 -57 3 -663 4 -669 1 -4 -1 32 -69 79 -150
47 -81 99 -172 116 -202 17 -30 38 -67 49 -82 10 -14 18 -28 18 -31 0 -2 43
-77 95 -166 52 -90 95 -165 95 -167 0 -3 42 -74 78 -129 6 -11 15 -27 19 -35
4 -8 20 -37 35 -63 26 -45 32 -74 17 -87 -3 -3 -38 -62 -79 -132 -41 -71 -77
-128 -81 -128 -6 0 -149 242 -188 318 -8 15 -17 29 -20 32 -3 3 -15 21 -25 40
-11 19 -29 53 -41 75 -12 22 -41 71 -64 109 -22 37 -41 69 -41 71 0 2 -22 41
-49 87 -27 45 -59 101 -72 124 -13 22 -62 107 -109 188 -47 81 -100 175 -119
209 -19 34 -41 68 -48 75 -7 7 -13 18 -13 23 0 5 -18 38 -40 73 -21 36 -51 86
-65 113 -30 57 -48 86 -56 93 -4 3 -9 14 -13 25 -6 20 -2 20 502 19 279 0 513
2 519 4 9 3 5 14 -12 36 -14 18 -25 35 -25 38 0 3 -39 72 -86 154 -47 82 -84
150 -83 151 2 1 -4 12 -13 23 -10 11 -18 22 -18 24 0 8 -64 110 -77 124 -7 7
-17 20 -22 30 -8 15 -54 16 -523 16 l-513 0 -26 41 c-14 22 -91 153 -170 290
-79 138 -147 252 -151 253 -4 2 -8 8 -8 13 0 6 -25 54 -56 107 -71 122 -89
153 -115 200 -12 20 -26 40 -33 44 -6 4 -8 8 -3 8 4 0 -4 18 -18 40 -14 22
-25 43 -25 48 0 4 78 7 174 7 l174 0 29 -57 c15 -32 31 -58 36 -58 4 0 7 -5 7
-10 0 -6 32 -65 71 -133 71 -120 91 -155 127 -219 11 -18 34 -59 53 -92 19
-32 47 -81 62 -110 16 -28 33 -55 38 -60 10 -11 689 -15 689 -4 0 4 -38 71
-84 150 -45 79 -94 163 -108 188 -78 139 -273 476 -278 480 -3 3 -16 24 -27
47 -28 54 -47 87 -53 93 -6 6 -20 31 -63 110 -17 30 -42 73 -56 95 -14 22 -25
42 -26 45 0 3 -18 35 -41 71 l-41 65 -861 1 c-474 0 -862 -1 -862 -3z"/>
<path d="M2095 5530 c-2 -3 9 -26 24 -50 26 -42 59 -99 121 -213 15 -26 29
-45 32 -42 2 3 5 -1 5 -7 0 -7 48 -95 106 -196 59 -101 107 -188 107 -193 0
-5 5 -9 10 -9 6 0 10 -5 10 -10 0 -6 40 -80 90 -165 49 -84 98 -169 108 -187
19 -33 68 -117 109 -186 24 -43 39 -67 78 -137 16 -27 48 -83 72 -123 24 -41
43 -78 43 -83 0 -5 4 -9 9 -9 5 0 19 -19 30 -42 12 -24 34 -65 50 -93 16 -27
46 -83 67 -122 21 -40 42 -73 46 -73 5 0 8 -5 8 -10 0 -6 52 -98 115 -206 63
-108 115 -198 115 -200 0 -2 11 -21 23 -42 13 -20 35 -57 49 -82 78 -139 193
-336 199 -340 3 -3 9 -15 13 -27 4 -13 13 -29 19 -35 7 -7 20 -29 30 -48 9
-19 30 -56 45 -81 15 -25 61 -105 102 -178 72 -126 76 -131 90 -110 8 12 56
92 106 178 50 86 121 209 158 273 49 85 66 122 61 135 -5 10 -9 20 -9 23 -2 6
-32 55 -57 92 -11 15 -19 30 -19 33 0 3 -57 103 -126 223 -70 119 -136 233
-146 252 -11 19 -89 154 -173 300 -85 146 -155 271 -157 279 -3 12 100 15 702
16 388 2 708 3 713 4 4 0 7 5 7 10 0 8 57 109 215 381 40 69 82 141 92 160 11
19 52 89 90 155 39 66 81 140 96 165 35 62 193 336 257 445 68 116 100 173
100 177 0 6 -3831 4 -3835 -2z m2795 -600 c0 -5 -60 -111 -131 -230 l-39 -66
-710 1 -711 0 -54 94 c-30 51 -55 97 -55 102 0 5 -4 9 -10 9 -5 0 -10 6 -10
13 0 6 -9 23 -20 37 -24 31 -25 38 -3 42 29 5 1743 3 1743 -2z"/>
</g>
</svg>
