<?xml version="1.0" encoding="UTF-8" standalone="no" ?>
<!DOCTYPE svg PUBLIC "-//W3C//DTD SVG 1.1//EN" "http://www.w3.org/Graphics/SVG/1.1/DTD/svg11.dtd">
<svg xmlns="http://www.w3.org/2000/svg" xmlns:xlink="http://www.w3.org/1999/xlink" version="1.1" width="720" height="720" viewBox="0 0 720 720" xml:space="preserve">
<desc>Created with Fabric.js 3.6.6</desc>
<defs>
</defs>
<g transform="matrix(1.3 0 0 1.3 333.5 346.5)"  >
<g style=""   >
		<g transform="matrix(1.62 0 0 1.62 200 0)" id="SVGRepo_iconCarrier"  >
<polygon style="stroke: rgb(0,0,0); stroke-width: 1; stroke-dasharray: none; stroke-linecap: butt; stroke-dashoffset: 0; stroke-linejoin: miter; stroke-miterlimit: 4; fill: rgb(255,255,255); fill-rule: nonzero; opacity: 1;"  points="-123.75,-247.5 -123.75,-207.5 83.75,-207.5 83.75,207.5 -123.75,207.5 -123.75,247.5 123.75,247.5 123.75,-247.5 " />
</g>
		<g transform="matrix(1.62 0 0 1.62 -200 0)" id="SVGRepo_iconCarrier"  >
<polygon style="stroke: rgb(0,0,0); stroke-width: 1; stroke-dasharray: none; stroke-linecap: butt; stroke-dashoffset: 0; stroke-linejoin: miter; stroke-miterlimit: 4; fill: rgb(255,255,255); fill-rule: nonzero; opacity: 1;"  points="-83.75,207.5 -83.75,-207.5 123.75,-207.5 123.75,-247.5 -123.75,-247.5 -123.75,247.5 123.75,247.5 123.75,207.5 " />
</g>
		<g transform="matrix(1.62 0 0 1.62 -5.26 -120.47)" id="SVGRepo_iconCarrier"  >
<path style="stroke: rgb(0,0,0); stroke-width: 1; stroke-dasharray: none; stroke-linecap: butt; stroke-dashoffset: 0; stroke-linejoin: miter; stroke-miterlimit: 4; fill: rgb(255,255,255); fill-rule: nonzero; opacity: 1;"  transform=" translate(-244.24, -172.96)" d="M 239.609 255.922 c 0 0 -17.226 -33.158 -16.579 -57.446 c 0.464 -17.292 39.508 -34.451 54.86 -59.32 C 293.241 114.221 276.016 90 276.016 90 s 3.813 17.872 -6.416 36.39 c -10.163 18.453 -47.863 29.345 -62.553 61.26 C 192.408 219.581 239.609 255.922 239.609 255.922 z" stroke-linecap="round" />
</g>
		<g transform="matrix(1.62 0 0 1.62 44.04 -58.56)" id="SVGRepo_iconCarrier"  >
<path style="stroke: rgb(0,0,0); stroke-width: 1; stroke-dasharray: none; stroke-linecap: butt; stroke-dashoffset: 0; stroke-linejoin: miter; stroke-miterlimit: 4; fill: rgb(255,255,255); fill-rule: nonzero; opacity: 1;"  transform=" translate(-274.75, -211.27)" d="M 304.117 155.088 c 0 0 -58.739 22.332 -58.739 47.847 c 0 25.582 15.932 33.871 18.519 42.16 c 2.536 8.29 -4.46 22.349 -4.46 22.349 s 22.978 -15.999 19.099 -34.451 c -3.813 -18.519 -21.702 -24.289 -11.457 -42.807 C 273.943 177.818 304.117 155.088 304.117 155.088 z" stroke-linecap="round" />
</g>
		<g transform="matrix(1.62 0 0 1.62 -24.87 44.17)" id="SVGRepo_iconCarrier"  >
<path style="stroke: rgb(0,0,0); stroke-width: 1; stroke-dasharray: none; stroke-linecap: butt; stroke-dashoffset: 0; stroke-linejoin: miter; stroke-miterlimit: 4; fill: rgb(255,255,255); fill-rule: nonzero; opacity: 1;"  transform=" translate(-232.11, -274.83)" d="M 233.275 289.66 c 54.263 -1.939 74.008 -19.049 74.008 -19.049 c -35.097 9.583 -128.288 8.936 -128.934 1.94 c -0.647 -7.046 28.698 -12.816 28.698 -12.816 s -45.924 0 -49.737 11.522 C 153.481 282.73 178.995 291.6 233.275 289.66 z" stroke-linecap="round" />
</g>
		<g transform="matrix(1.62 0 0 1.62 142.83 62.32)" id="SVGRepo_iconCarrier"  >
<path style="stroke: rgb(0,0,0); stroke-width: 1; stroke-dasharray: none; stroke-linecap: butt; stroke-dashoffset: 0; stroke-linejoin: miter; stroke-miterlimit: 4; fill: rgb(255,255,255); fill-rule: nonzero; opacity: 1;"  transform=" translate(-335.87, -286.06)" d="M 311.76 316.601 c 0 0 53.103 -11.34 47.863 -40.22 c -6.35 -35.098 -43.403 -15.286 -43.403 -15.286 s 26.178 0 28.698 15.932 C 347.504 292.959 311.76 316.601 311.76 316.601 z" stroke-linecap="round" />
</g>
		<g transform="matrix(1.62 0 0 1.62 -14.33 97.91)" id="SVGRepo_iconCarrier"  >
<path style="stroke: rgb(0,0,0); stroke-width: 1; stroke-dasharray: none; stroke-linecap: butt; stroke-dashoffset: 0; stroke-linejoin: miter; stroke-miterlimit: 4; fill: rgb(255,255,255); fill-rule: nonzero; opacity: 1;"  transform=" translate(-238.64, -308.08)" d="M 285.598 301.249 c 0 0 -13.412 3.564 -33.224 5.769 c -26.559 2.968 -58.739 0.647 -61.259 -3.829 c -2.537 -4.46 4.459 -7.063 4.459 -7.063 c -31.931 7.709 -14.44 21.056 22.929 23.642 c 32.113 2.205 79.844 -9.583 79.844 -9.583 L 285.598 301.249 z" stroke-linecap="round" />
</g>
		<g transform="matrix(1.62 0 0 1.62 -11.07 152.08)" id="SVGRepo_iconCarrier"  >
<path style="stroke: rgb(0,0,0); stroke-width: 1; stroke-dasharray: none; stroke-linecap: butt; stroke-dashoffset: 0; stroke-linejoin: miter; stroke-miterlimit: 4; fill: rgb(255,255,255); fill-rule: nonzero; opacity: 1;"  transform=" translate(-240.65, -341.6)" d="M 203.284 329.168 c 0 0 -14.506 0.381 -15.352 8.025 c -0.846 7.642 8.936 14.506 44.68 16.578 c 35.761 2.139 60.812 -9.715 60.812 -9.715 l -16.115 -9.848 c 0 0 -10.23 2.139 -25.98 4.277 c -15.734 2.139 -48.046 -1.691 -49.339 -4.659 C 200.698 330.842 203.284 329.168 203.284 329.168 z" stroke-linecap="round" />
</g>
		<g transform="matrix(1.62 0 0 1.62 -14.89 193.84)" id="SVGRepo_iconCarrier"  >
<path style="stroke: rgb(0,0,0); stroke-width: 1; stroke-dasharray: none; stroke-linecap: butt; stroke-dashoffset: 0; stroke-linejoin: miter; stroke-miterlimit: 4; fill: rgb(255,255,255); fill-rule: nonzero; opacity: 1;"  transform=" translate(-238.29, -367.44)" d="M 226.66 383.63 c 76.545 -0.066 110.234 -14.059 115.738 -20.011 c 5.504 -5.968 -1.758 -10.627 -1.758 -10.627 s 2.586 2.985 -0.779 6.35 c -3.432 3.432 -34.518 11.921 -84.321 14.44 c -49.737 2.586 -103.801 -4.659 -105.493 -11.008 c -1.69 -6.416 27.654 -11.522 27.654 -11.522 c -3.366 0.447 -44.233 1.292 -45.526 12.367 C 130.884 374.694 150.048 383.63 226.66 383.63 z" stroke-linecap="round" />
</g>
		<g transform="matrix(1.62 0 0 1.62 31.63 221.43)" id="SVGRepo_iconCarrier"  >
<path style="stroke: rgb(0,0,0); stroke-width: 1; stroke-dasharray: none; stroke-linecap: butt; stroke-dashoffset: 0; stroke-linejoin: miter; stroke-miterlimit: 4; fill: rgb(255,255,255); fill-rule: nonzero; opacity: 1;"  transform=" translate(-267.07, -384.51)" d="M 312.606 388.736 c -33.622 6.747 -135.748 2.47 -135.748 2.47 s 66.382 15.8 142.148 2.586 c 36.208 -6.35 38.281 -23.84 38.281 -23.84 S 346.211 381.873 312.606 388.736 z" stroke-linecap="round" />
</g>
</g>
</g>
</svg>